<svg width="68" height="25" fill="none" xmlns="http://www.w3.org/2000/svg"><path d="M36.038 17.692c.636 0 1.202-.112 1.698-.336a2.72 2.72 0 001.17-.972c.288-.428.432-.944.432-1.548 0-.448-.08-.83-.24-1.146a2.4 2.4 0 00-.648-.81 4.38 4.38 0 00-.96-.594c-.364-.172-.75-.338-1.158-.498a16.326 16.326 0 01-.87-.36 2.019 2.019 0 01-.678-.492c-.176-.2-.264-.466-.264-.798a1.577 1.577 0 01.792-1.374c.26-.156.576-.234.948-.234.456 0 .864.104 1.224.312.36.204.638.436.834.696l.57-.894a2.872 2.872 0 00-.642-.582 3.725 3.725 0 00-.918-.462 3.24 3.24 0 00-1.086-.18c-.572 0-1.076.126-1.512.378A2.756 2.756 0 0033.71 8.8a2.633 2.633 0 00-.366 1.356c0 .484.112.886.336 1.206.228.32.51.58.846.78.34.2.674.366 1.002.498.468.184.892.366 1.272.546.38.18.68.4.9.66.224.256.336.596.336 1.02 0 .372-.09.684-.27.936a1.635 1.635 0 01-.708.57 2.47 2.47 0 01-.99.192c-.384 0-.728-.06-1.032-.18a3.25 3.25 0 01-.798-.444 4.181 4.181 0 01-.576-.528c-.156-.176-.28-.32-.372-.432l-.666.948c.084.112.216.266.396.462.18.192.41.388.69.588.28.2.614.37 1.002.51.388.136.83.204 1.326.204zm8.245 0a3.6 3.6 0 001.146-.18c.36-.12.668-.278.924-.474l-.444-.786c-.392.312-.88.468-1.464.468-.456 0-.86-.1-1.212-.3a2.204 2.204 0 01-.816-.822 2.342 2.342 0 01-.294-1.17c0-.42.094-.804.282-1.152.192-.348.462-.624.81-.828.348-.208.754-.312 1.218-.312.584 0 1.078.156 1.482.468l.438-.786c-.252-.2-.56-.358-.924-.474a3.656 3.656 0 00-1.152-.18 3.38 3.38 0 00-1.716.438 3.317 3.317 0 00-1.2 1.176 3.171 3.171 0 00-.438 1.65c0 .62.15 1.176.45 1.668.304.492.71.882 1.218 1.17a3.408 3.408 0 001.692.426zm3.83-.192h1.164v-3.87c0-.252.074-.488.222-.708.152-.22.348-.398.588-.534.244-.14.5-.21.768-.21.144 0 .298.02.462.06.164.04.308.094.432.162l.48-.984a2.048 2.048 0 00-.516-.18 2.44 2.44 0 00-.582-.072c-.82 0-1.438.364-1.854 1.092v-.9h-1.164V17.5zm8.454.192c.652 0 1.238-.138 1.758-.414.524-.276.938-.66 1.242-1.152.308-.492.462-1.058.462-1.698 0-.644-.154-1.21-.462-1.698a3.164 3.164 0 00-1.242-1.152c-.52-.276-1.106-.414-1.758-.414-.652 0-1.24.138-1.764.414-.52.276-.934.66-1.242 1.152-.304.488-.456 1.054-.456 1.698 0 .64.152 1.206.456 1.698.308.492.722.876 1.242 1.152a3.727 3.727 0 001.764.414zm0-1.014c-.428 0-.812-.096-1.152-.288a2.11 2.11 0 01-.804-.798 2.288 2.288 0 01-.294-1.164c0-.44.098-.828.294-1.164a2.11 2.11 0 01.804-.798c.34-.192.724-.288 1.152-.288.432 0 .818.096 1.158.288.34.192.608.458.804.798.196.336.294.724.294 1.164 0 .436-.098.824-.294 1.164a2.11 2.11 0 01-.804.798c-.34.192-.726.288-1.158.288zm5.41.822h1.163V7.18h-1.164V17.5zm3.62 0h1.164V7.18h-1.164V17.5zM12 22.5c-5.523 0-10-4.477-10-10s4.477-10 10-10 10 4.477 10 10c-.006 5.52-4.48 9.994-10 10zm0-18a8 8 0 108 8 8.009 8.009 0 00-8-8zm0 13l-5-5 1.41-1.41L11 13.67V7.5h2v6.17l2.59-2.58L17 12.5l-5 5z" fill="#928A97"/></svg>